<?xml version="1.0" encoding="UTF-8" standalone="no"?>
<svg
   width="96"
   height="29"
   viewBox="0 0 96 29"
   fill="none"
   version="1.1"
   id="svg2"
   xmlns="http://www.w3.org/2000/svg"
   xmlns:svg="http://www.w3.org/2000/svg">
  <defs
     id="defs2" />
  <rect
     width="96"
     height="29"
     fill="white"
     id="rect1"
     clip-path="none" />
  <path
     d="M22.0692 12.7104C23.0249 11.9073 23.8942 11.1298 24.8163 10.4232C25.2395 10.0985 25.7408 9.81778 26.2493 9.68474C27.7461 9.29296 29.0121 10.1656 29.2597 11.7608C29.3547 12.3711 29.3391 13.0241 29.2393 13.6356C28.8738 15.8801 28.4338 18.1112 28.0683 20.3557C27.989 20.8415 28.0311 21.3773 28.1477 21.8582C28.3388 22.6479 29.1275 23.0458 29.8488 22.6845C30.5053 22.3549 31.0956 21.885 31.6979 21.4518C31.8073 21.3736 31.8662 21.1784 31.8878 21.0282C32.1415 19.2585 32.3855 17.4887 32.6284 15.7178C32.65 15.5579 32.6609 15.3931 32.6524 15.2308C32.6272 14.7023 32.3687 14.5363 31.8986 14.7841C31.4743 15.0074 31.0763 15.2833 30.5858 15.5859C30.2408 15.1881 29.8801 14.7731 29.4377 14.2629C31.1244 12.7897 32.7462 11.3129 34.4378 9.92396C35.2036 9.2954 36.2628 9.56147 36.9432 10.4012C37.6513 11.2739 37.917 12.2967 37.8882 13.4122C37.8846 13.5672 37.8882 13.721 37.7824 13.754C38.4352 13.1693 39.0688 12.5615 39.7444 12.0062C41.4312 10.6209 43.3559 9.91542 45.538 10.118C47.1334 10.2669 48.1456 11.3483 48.32 12.974C48.3584 13.328 48.3837 13.6844 48.4294 14.2019C48.8922 13.7344 49.2661 13.3817 49.6124 13.0033C50.4515 12.0867 51.3905 11.3068 52.4953 10.7429C53.4848 10.2376 54.5427 10.057 55.6392 10.0814C57.5615 10.1253 58.896 11.3837 58.8491 13.3426C58.8143 14.8134 58.5306 16.2804 58.3129 17.7414C58.1314 18.9631 57.8573 20.1714 57.6806 21.3932C57.612 21.8655 57.6241 22.3952 58.1651 22.665C58.6616 22.9115 59.5729 22.7772 59.978 22.3842C60.0658 22.3 60.1391 22.1414 60.1319 22.0242C59.8482 17.8708 61.8944 14.8866 64.8687 12.4053C67.3225 10.3585 70.1694 9.58344 73.3313 9.85928C77.3828 10.212 77.931 14.28 76.2611 16.6271C74.4457 19.1792 72.0148 20.8354 69.0585 21.7215C68.3733 21.9265 67.6772 22.0913 66.9414 22.2866C67.355 22.8908 67.9044 23.224 68.5788 23.3314C70.1754 23.5852 71.7395 23.3277 73.27 22.9017C74.4433 22.5746 75.5806 22.1145 76.7396 21.73C77.081 21.6165 77.2085 21.4359 77.1664 21.0612C76.5785 15.7715 81.789 10.035 87.0067 9.65911C88.1332 9.57734 89.309 9.51387 90.4006 9.74455C93.0131 10.2962 94.6757 12.3772 95.0605 15.2796C95.7373 20.3911 92.6716 25.654 87.9096 27.3383C85.2863 28.2659 82.6029 28.3404 80.1576 26.7683C79.2607 26.1923 78.5934 25.2488 77.8084 24.4603C76.6025 25.056 75.2837 25.7895 73.9047 26.3729C71.2274 27.5068 68.431 28.0597 65.5191 27.7545C63.7422 27.5678 62.2635 26.8086 61.2476 25.2573C61.1923 25.1731 61.1298 25.0938 61.0673 25.0145C61.0564 24.9998 61.0336 24.9949 60.9855 24.9693C60.471 25.3513 59.9588 25.7663 59.4142 26.1312C57.897 27.1479 56.2559 27.796 54.4033 27.7399C52.7165 27.6886 51.7812 26.7842 51.6369 25.0791C51.4903 23.3436 51.9784 21.6995 52.3114 20.0274C52.5242 18.957 52.6408 17.8647 52.7442 16.7772C52.7911 16.2853 52.6612 15.7873 52.1539 15.5396C51.6321 15.2857 51.1717 15.4981 50.7593 15.8178C49.6605 16.6722 49.0473 17.8988 48.3957 19.0852C47.2368 21.193 46.6597 23.4485 46.8472 25.8737C46.8905 26.4351 47.0204 26.9905 47.1213 27.6154C45.6354 27.5971 44.1578 27.6093 42.8606 26.711C42.0419 26.1434 41.6836 25.3037 41.5634 24.3383C41.3698 22.7772 41.6524 21.2687 41.9974 19.754C42.2126 18.8106 42.3088 17.8354 42.4086 16.8687C42.4651 16.317 42.3052 15.791 41.7534 15.5445C41.1847 15.2918 40.6485 15.4383 40.1989 15.8593C39.1385 16.8528 38.5338 18.1454 38.0252 19.4709C37.043 22.0291 36.7977 24.6703 37.3448 27.3725C37.3568 27.4299 37.346 27.4909 37.346 27.5495C34.772 27.7606 32.6236 26.9758 31.9155 24.5702C31.2963 25.0511 30.706 25.5527 30.0749 25.9933C28.5456 27.0625 26.8913 27.7802 24.987 27.7301C23.275 27.685 22.1016 26.6194 22.1293 24.8704C22.1497 23.545 22.3974 22.2097 22.6715 20.9062C22.9877 19.3988 23.4445 17.9208 23.8341 16.4293C23.8954 16.195 24 15.9314 23.9459 15.7178C23.8569 15.3663 23.7355 14.9159 23.4758 14.7487C23.2678 14.6156 22.8097 14.7828 22.5092 14.922C21.9249 15.1905 21.6135 15.6921 21.3358 16.2963C19.53 20.2373 17.009 23.6511 13.7064 26.4229C12.9911 27.0234 12.0594 27.4067 11.1709 27.7338C10.1442 28.1109 9.20886 27.6752 8.65583 26.7989C8.05952 25.8542 7.55579 24.8118 7.21796 23.7451C6.45935 21.3492 5.84861 18.9058 5.12847 16.4965C4.96978 15.9655 4.64037 15.4761 4.33139 15.0074C4.0645 14.6022 3.67497 14.5033 3.23495 14.7926C2.83461 15.0562 2.42224 15.3016 1.9666 15.5859C1.65041 15.1734 1.34624 14.778 1 14.3252C1.51937 13.8553 2.01469 13.3915 2.52684 12.946C3.49824 12.0989 4.45402 11.2311 5.4639 10.4341C5.8955 10.0936 6.42088 9.80679 6.94746 9.6762C8.21942 9.3613 9.33269 9.98743 9.75227 11.3495C10.1262 12.5639 10.2789 13.8467 10.5554 15.0941C10.9232 16.7552 11.3104 18.4114 11.7023 20.0665C11.7528 20.2801 11.8646 20.4839 11.9764 20.6755C12.3154 21.2589 12.7639 21.3834 13.1798 20.8671C13.9348 19.931 14.6357 18.9363 15.2549 17.9025C15.6096 17.3093 15.8464 16.6063 15.9786 15.9216C16.2443 14.5387 15.6444 13.9187 14.2667 14.0542C13.8964 14.0908 13.5333 14.2019 13.1618 14.28C13.454 11.2128 16.8972 8.71321 19.7885 9.43209C21.1206 9.76286 21.7121 10.7161 21.9658 11.9793C22.0091 12.1953 22.0307 12.415 22.074 12.7092H22.0692V12.7104ZM82.877 21.0234C82.9095 21.265 82.9227 21.7178 83.0357 22.145C83.4529 23.717 84.5469 24.2663 86.0197 23.6292C86.4344 23.4498 86.8324 23.1776 87.1654 22.8676C88.3965 21.7203 89.1226 20.2605 89.517 18.6336C89.8476 17.2727 89.9281 15.9057 89.416 14.5583C89.0481 13.5904 88.5528 13.3231 87.5525 13.516C86.652 13.6893 85.891 14.1201 85.2839 14.7926C83.7486 16.4928 82.9648 18.5128 82.8782 21.0234H82.877ZM66.1395 20.4009C68.2915 19.5441 70.0119 18.2979 71.1901 16.3598C71.6421 15.6165 71.6445 14.7096 71.2538 14.3044C70.8667 13.9029 69.9518 13.8723 69.2533 14.4338C68.544 15.0038 67.8936 15.6885 67.3514 16.4244C66.5242 17.5461 66.0565 18.8325 66.1407 20.4021H66.1395V20.4009Z"
     fill="#6A6F73"
     id="path1"
     clip-path="none" />
  <path
     d="M26.2609 7.22963C26.3977 7.22963 26.3574 7.23219 26.3171 7.22963C25.4008 7.16172 24.4784 7.03871 24.0764 6.0072C23.6598 4.93983 23.8064 3.90961 24.5333 3.01137C25.5315 1.77741 26.7984 1.09188 28.3463 1.00346C29.9663 0.911204 31.1905 2.67949 30.6322 4.29658C30.0348 6.03027 28.2718 7.26423 26.2621 7.22835L26.2609 7.22963Z"
     fill="#6A6F73"
     id="path2"
     clip-path="none" />
</svg>
